Coordinates
version=1
nRows=5
nColumns=42
inDegrees=yes

Units are S.I. units (second, meters, Newtons, ...)
If the header above contains a line with 'inDegrees', this indicates whether rotational values are in degrees (yes) or radians (no).

endheader
time	pelvis_tilt	pelvis_list	pelvis_rotation	pelvis_tx	pelvis_ty	pelvis_tz	hip_flexion_r	hip_adduction_r	hip_rotation_r	knee_angle_r	knee_adduction_r	knee_angle_r_beta	ankle_angle_r	subtalar_angle_r	mtp_angle_r	hip_flexion_l	hip_adduction_l	hip_rotation_l	knee_angle_l	knee_adduction_l	knee_angle_l_beta	ankle_angle_l	subtalar_angle_l	mtp_angle_l	lumbar_extension	lumbar_bending	lumbar_rotation	arm_flex_r	arm_add_r	arm_rot_r	elbow_flex_r	pro_sup_r	wrist_flex_r	wrist_dev_r	arm_flex_l	arm_add_l	arm_rot_l	elbow_flex_l	pro_sup_l	wrist_flex_l	wrist_dev_l
      6.50000000	      1.96795321	    -10.58197974	    -13.72768483	     -0.30345675	      0.84760630	      0.28176000	     -2.41460603	      6.48759949	    -18.74829608	     21.07691657	     -3.24811245	      0.36786159	     15.89991473	     23.72427695	     -7.50005353	     14.56168668	    -18.78705634	    -29.15216259	     35.12261117	     -5.94682529	      0.61300521	     18.36738772	     27.18136965	     -7.50005353	    -28.92160000	      7.56293141	      4.20896421	     -8.24044955	     -2.04076365	    -11.66725406	    103.90467729	     90.00000001	      0.00000000	      0.00000000	      3.19197345	     -7.95953423	    -18.14667742	     47.68698901	     90.00000001	      0.00000000	      0.00000000
      6.51000000	      2.07172126	    -10.57546401	    -14.23328083	     -0.30086420	      0.84965467	      0.28003643	     -2.50076002	      6.29560630	    -18.54698674	     21.26594283	     -3.39098422	      0.37116072	     15.12732227	     23.27286340	     -7.50005274	     13.46756658	    -18.59993178	    -30.10308242	     34.08426925	     -5.70810436	      0.59488272	     18.21018236	     27.73782666	     -7.50005274	    -29.07916673	      7.39757661	      4.44366734	     -8.28152258	     -2.02297016	    -11.47173798	    104.17136317	     90.00000001	      0.00000000	      0.00000000	      3.23753560	     -8.00947667	    -18.16580895	     47.77713117	     90.00000001	      0.00000000	      0.00000000
      6.52000000	      2.42112472	    -10.50162488	    -14.78179927	     -0.29803525	      0.85202525	      0.27828516	     -2.92353072	      5.84296665	    -18.11530147	     21.37100687	     -3.22307761	      0.37299443	     14.27986544	     22.61150137	     -7.50005109	     12.03564672	    -18.25610320	    -31.63845098	     32.90114928	     -5.69024541	      0.57423338	     17.87214732	     29.00671558	     -7.50005109	    -29.45046414	      7.09153979	      4.65116966	     -8.27827823	     -1.97626983	    -11.34143230	    104.42007747	     90.00000001	      0.00000000	      0.00000000	      3.22159448	     -8.09527409	    -18.18120272	     47.86416151	     90.00000001	      0.00000000	      0.00000000
      6.53000000	      2.16227550	    -10.65497209	    -15.07032247	     -0.29556609	      0.85333295	      0.27650160	     -2.62033534	      5.95321948	    -18.17728574	     21.59645216	     -3.41540953	      0.37692920	     13.90048137	     22.46987317	     -7.50005080	     11.59268816	    -18.35712763	    -32.03885615	     32.23810891	     -5.31125191	      0.56266115	     17.89542837	     29.11026912	     -7.50005080	    -29.20813584	      7.30131420	      4.67062641	     -8.30545881	     -1.90109856	    -11.20945099	    104.68785945	     90.00000001	      0.00000000	      0.00000000	      3.12764797	     -8.19299828	    -18.20680076	     47.90093801	     90.00000001	      0.00000000	      0.00000000
      6.54000000	      2.21137458	    -10.64178012	    -15.65139187	     -0.29330964	      0.85514703	      0.27494347	     -2.43431886	      5.80598800	    -17.93326515	     22.09585281	     -3.79545258	      0.38564538	     12.87557795	     22.17182579	     -7.50005024	     10.55380565	    -18.20541969	    -32.92975984	     31.22535971	     -4.84812592	      0.54498534	     17.69886658	     29.67364622	     -7.50005024	    -29.35504640	      7.11802022	      5.05940309	     -8.40836971	     -1.98198012	    -10.98264097	    104.97509757	     90.00000001	      0.00000000	      0.00000000	      3.22810826	     -8.23821425	    -18.23455097	     48.07584787	     90.00000001	      0.00000000	      0.00000000
